<mxfile host="app.diagrams.net" agent="Mozilla/5.0 (Windows NT 10.0; Win64; x64) AppleWebKit/537.36 (KHTML, like Gecko) Chrome/126.0.0.0 Safari/537.36" version="24.7.15">
  <diagram name="第 1 页" id="_HwajRiNFtwBDf4wMEr2">
    <mxGraphModel dx="2901" dy="1193" grid="1" gridSize="10" guides="1" tooltips="1" connect="1" arrows="1" fold="1" page="1" pageScale="1" pageWidth="827" pageHeight="1169" math="0" shadow="0">
      <root>
        <mxCell id="0" />
        <mxCell id="1" parent="0" />
        <mxCell id="nmwjDRBDZmFMRTuQTV6h-51" value="车控SDK" style="shape=umlLifeline;perimeter=lifelinePerimeter;whiteSpace=wrap;html=1;container=0;dropTarget=0;collapsible=0;recursiveResize=0;outlineConnect=0;portConstraint=eastwest;newEdgeStyle={&quot;edgeStyle&quot;:&quot;elbowEdgeStyle&quot;,&quot;elbow&quot;:&quot;vertical&quot;,&quot;curved&quot;:0,&quot;rounded&quot;:0};fillColor=#ffe6cc;strokeColor=#d79b00;" parent="1" vertex="1">
          <mxGeometry x="-272" y="40" width="100" height="950" as="geometry" />
        </mxCell>
        <mxCell id="nmwjDRBDZmFMRTuQTV6h-52" value="" style="html=1;points=[];perimeter=orthogonalPerimeter;outlineConnect=0;targetShapes=umlLifeline;portConstraint=eastwest;newEdgeStyle={&quot;edgeStyle&quot;:&quot;elbowEdgeStyle&quot;,&quot;elbow&quot;:&quot;vertical&quot;,&quot;curved&quot;:0,&quot;rounded&quot;:0};" parent="nmwjDRBDZmFMRTuQTV6h-51" vertex="1">
          <mxGeometry x="45" y="113" width="10" height="440" as="geometry" />
        </mxCell>
        <mxCell id="nmwjDRBDZmFMRTuQTV6h-53" value="沈阳SDK" style="shape=umlLifeline;perimeter=lifelinePerimeter;whiteSpace=wrap;html=1;container=0;dropTarget=0;collapsible=0;recursiveResize=0;outlineConnect=0;portConstraint=eastwest;newEdgeStyle={&quot;edgeStyle&quot;:&quot;elbowEdgeStyle&quot;,&quot;elbow&quot;:&quot;vertical&quot;,&quot;curved&quot;:0,&quot;rounded&quot;:0};" parent="1" vertex="1">
          <mxGeometry x="-463" y="40" width="100" height="950" as="geometry" />
        </mxCell>
        <mxCell id="nmwjDRBDZmFMRTuQTV6h-54" value="" style="html=1;points=[];perimeter=orthogonalPerimeter;outlineConnect=0;targetShapes=umlLifeline;portConstraint=eastwest;newEdgeStyle={&quot;edgeStyle&quot;:&quot;elbowEdgeStyle&quot;,&quot;elbow&quot;:&quot;vertical&quot;,&quot;curved&quot;:0,&quot;rounded&quot;:0};" parent="nmwjDRBDZmFMRTuQTV6h-53" vertex="1">
          <mxGeometry x="44" y="73" width="10" height="500" as="geometry" />
        </mxCell>
        <mxCell id="UPgxkfS9yM4EmyFrJnMO-11" value="" style="html=1;points=[];perimeter=orthogonalPerimeter;outlineConnect=0;targetShapes=umlLifeline;portConstraint=eastwest;newEdgeStyle={&quot;edgeStyle&quot;:&quot;elbowEdgeStyle&quot;,&quot;elbow&quot;:&quot;vertical&quot;,&quot;curved&quot;:0,&quot;rounded&quot;:0};" vertex="1" parent="nmwjDRBDZmFMRTuQTV6h-53">
          <mxGeometry x="44" y="614" width="10" height="40" as="geometry" />
        </mxCell>
        <mxCell id="UPgxkfS9yM4EmyFrJnMO-29" value="" style="html=1;points=[];perimeter=orthogonalPerimeter;outlineConnect=0;targetShapes=umlLifeline;portConstraint=eastwest;newEdgeStyle={&quot;edgeStyle&quot;:&quot;elbowEdgeStyle&quot;,&quot;elbow&quot;:&quot;vertical&quot;,&quot;curved&quot;:0,&quot;rounded&quot;:0};" vertex="1" parent="nmwjDRBDZmFMRTuQTV6h-53">
          <mxGeometry x="44" y="724" width="10" height="210" as="geometry" />
        </mxCell>
        <mxCell id="nmwjDRBDZmFMRTuQTV6h-55" value="&lt;span style=&quot;font-size: 12px; text-align: left;&quot;&gt;2、&lt;/span&gt;车控指令请求" style="html=1;verticalAlign=bottom;endArrow=none;edgeStyle=elbowEdgeStyle;elbow=horizontal;curved=0;rounded=0;startArrow=block;startFill=1;endFill=0;" parent="1" edge="1">
          <mxGeometry relative="1" as="geometry">
            <mxPoint x="-233" y="169" as="sourcePoint" />
            <Array as="points" />
            <mxPoint x="-410" y="169" as="targetPoint" />
          </mxGeometry>
        </mxCell>
        <mxCell id="nmwjDRBDZmFMRTuQTV6h-57" value="DeviceOEM-Server" style="shape=umlLifeline;perimeter=lifelinePerimeter;whiteSpace=wrap;html=1;container=0;dropTarget=0;collapsible=0;recursiveResize=0;outlineConnect=0;portConstraint=eastwest;newEdgeStyle={&quot;edgeStyle&quot;:&quot;elbowEdgeStyle&quot;,&quot;elbow&quot;:&quot;vertical&quot;,&quot;curved&quot;:0,&quot;rounded&quot;:0};" parent="1" vertex="1">
          <mxGeometry x="-63" y="40" width="140" height="950" as="geometry" />
        </mxCell>
        <mxCell id="nmwjDRBDZmFMRTuQTV6h-58" value="" style="html=1;points=[];perimeter=orthogonalPerimeter;outlineConnect=0;targetShapes=umlLifeline;portConstraint=eastwest;newEdgeStyle={&quot;edgeStyle&quot;:&quot;elbowEdgeStyle&quot;,&quot;elbow&quot;:&quot;vertical&quot;,&quot;curved&quot;:0,&quot;rounded&quot;:0};" parent="nmwjDRBDZmFMRTuQTV6h-57" vertex="1">
          <mxGeometry x="65" y="234" width="10" height="158" as="geometry" />
        </mxCell>
        <mxCell id="nmwjDRBDZmFMRTuQTV6h-78" value="" style="html=1;points=[];perimeter=orthogonalPerimeter;outlineConnect=0;targetShapes=umlLifeline;portConstraint=eastwest;newEdgeStyle={&quot;edgeStyle&quot;:&quot;elbowEdgeStyle&quot;,&quot;elbow&quot;:&quot;vertical&quot;,&quot;curved&quot;:0,&quot;rounded&quot;:0};" parent="nmwjDRBDZmFMRTuQTV6h-57" vertex="1">
          <mxGeometry x="65" y="460" width="10" height="60" as="geometry" />
        </mxCell>
        <mxCell id="nmwjDRBDZmFMRTuQTV6h-59" value="VehicleOEM-Server" style="shape=umlLifeline;perimeter=lifelinePerimeter;whiteSpace=wrap;html=1;container=0;dropTarget=0;collapsible=0;recursiveResize=0;outlineConnect=0;portConstraint=eastwest;newEdgeStyle={&quot;edgeStyle&quot;:&quot;elbowEdgeStyle&quot;,&quot;elbow&quot;:&quot;vertical&quot;,&quot;curved&quot;:0,&quot;rounded&quot;:0};" parent="1" vertex="1">
          <mxGeometry x="167" y="40" width="140" height="950" as="geometry" />
        </mxCell>
        <mxCell id="nmwjDRBDZmFMRTuQTV6h-60" value="" style="html=1;points=[];perimeter=orthogonalPerimeter;outlineConnect=0;targetShapes=umlLifeline;portConstraint=eastwest;newEdgeStyle={&quot;edgeStyle&quot;:&quot;elbowEdgeStyle&quot;,&quot;elbow&quot;:&quot;vertical&quot;,&quot;curved&quot;:0,&quot;rounded&quot;:0};" parent="nmwjDRBDZmFMRTuQTV6h-59" vertex="1">
          <mxGeometry x="65" y="292" width="10" height="93" as="geometry" />
        </mxCell>
        <mxCell id="nmwjDRBDZmFMRTuQTV6h-82" value="" style="html=1;points=[];perimeter=orthogonalPerimeter;outlineConnect=0;targetShapes=umlLifeline;portConstraint=eastwest;newEdgeStyle={&quot;edgeStyle&quot;:&quot;elbowEdgeStyle&quot;,&quot;elbow&quot;:&quot;vertical&quot;,&quot;curved&quot;:0,&quot;rounded&quot;:0};" parent="nmwjDRBDZmFMRTuQTV6h-59" vertex="1">
          <mxGeometry x="65" y="424" width="10" height="101" as="geometry" />
        </mxCell>
        <mxCell id="nmwjDRBDZmFMRTuQTV6h-117" value="" style="html=1;points=[];perimeter=orthogonalPerimeter;outlineConnect=0;targetShapes=umlLifeline;portConstraint=eastwest;newEdgeStyle={&quot;edgeStyle&quot;:&quot;elbowEdgeStyle&quot;,&quot;elbow&quot;:&quot;vertical&quot;,&quot;curved&quot;:0,&quot;rounded&quot;:0};" parent="nmwjDRBDZmFMRTuQTV6h-59" vertex="1">
          <mxGeometry x="-164" y="594" width="10" height="60" as="geometry" />
        </mxCell>
        <mxCell id="nmwjDRBDZmFMRTuQTV6h-118" value="" style="html=1;points=[];perimeter=orthogonalPerimeter;outlineConnect=0;targetShapes=umlLifeline;portConstraint=eastwest;newEdgeStyle={&quot;edgeStyle&quot;:&quot;elbowEdgeStyle&quot;,&quot;elbow&quot;:&quot;vertical&quot;,&quot;curved&quot;:0,&quot;rounded&quot;:0};" parent="nmwjDRBDZmFMRTuQTV6h-59" vertex="1">
          <mxGeometry x="66" y="570" width="10" height="79" as="geometry" />
        </mxCell>
        <mxCell id="nmwjDRBDZmFMRTuQTV6h-121" value="15、MQTT：车况上报" style="html=1;verticalAlign=bottom;endArrow=block;edgeStyle=elbowEdgeStyle;elbow=vertical;curved=0;rounded=0;" parent="nmwjDRBDZmFMRTuQTV6h-59" edge="1">
          <mxGeometry relative="1" as="geometry">
            <mxPoint x="303" y="576" as="sourcePoint" />
            <Array as="points" />
            <mxPoint x="78" y="576" as="targetPoint" />
          </mxGeometry>
        </mxCell>
        <mxCell id="nmwjDRBDZmFMRTuQTV6h-122" value="MQTT：返回" style="html=1;verticalAlign=bottom;endArrow=open;dashed=1;endSize=8;edgeStyle=elbowEdgeStyle;elbow=vertical;curved=0;rounded=0;" parent="nmwjDRBDZmFMRTuQTV6h-59" edge="1">
          <mxGeometry x="0.0057" relative="1" as="geometry">
            <mxPoint x="304.5" y="596" as="targetPoint" />
            <Array as="points">
              <mxPoint x="165" y="596" />
            </Array>
            <mxPoint x="75" y="596" as="sourcePoint" />
            <mxPoint as="offset" />
          </mxGeometry>
        </mxCell>
        <mxCell id="nmwjDRBDZmFMRTuQTV6h-123" value="16、车况上报" style="html=1;verticalAlign=bottom;endArrow=block;edgeStyle=elbowEdgeStyle;elbow=vertical;curved=0;rounded=0;" parent="nmwjDRBDZmFMRTuQTV6h-59" edge="1">
          <mxGeometry relative="1" as="geometry">
            <mxPoint x="61" y="607" as="sourcePoint" />
            <Array as="points" />
            <mxPoint x="-149" y="607" as="targetPoint" />
          </mxGeometry>
        </mxCell>
        <mxCell id="nmwjDRBDZmFMRTuQTV6h-125" value="17、MQTT：车况上报" style="html=1;verticalAlign=bottom;endArrow=block;edgeStyle=elbowEdgeStyle;elbow=vertical;curved=0;rounded=0;" parent="nmwjDRBDZmFMRTuQTV6h-59" edge="1">
          <mxGeometry relative="1" as="geometry">
            <mxPoint x="-170" y="618" as="sourcePoint" />
            <Array as="points" />
            <mxPoint x="-382.5" y="618" as="targetPoint" />
          </mxGeometry>
        </mxCell>
        <mxCell id="nmwjDRBDZmFMRTuQTV6h-127" value="返回" style="html=1;verticalAlign=bottom;endArrow=open;dashed=1;endSize=8;edgeStyle=elbowEdgeStyle;elbow=vertical;curved=0;rounded=0;" parent="nmwjDRBDZmFMRTuQTV6h-59" edge="1">
          <mxGeometry x="0.0057" relative="1" as="geometry">
            <mxPoint x="66" y="637" as="targetPoint" />
            <Array as="points">
              <mxPoint x="-59" y="637" />
            </Array>
            <mxPoint x="-149" y="637" as="sourcePoint" />
            <mxPoint as="offset" />
          </mxGeometry>
        </mxCell>
        <mxCell id="UPgxkfS9yM4EmyFrJnMO-20" value="" style="html=1;points=[];perimeter=orthogonalPerimeter;outlineConnect=0;targetShapes=umlLifeline;portConstraint=eastwest;newEdgeStyle={&quot;edgeStyle&quot;:&quot;elbowEdgeStyle&quot;,&quot;elbow&quot;:&quot;vertical&quot;,&quot;curved&quot;:0,&quot;rounded&quot;:0};" vertex="1" parent="nmwjDRBDZmFMRTuQTV6h-59">
          <mxGeometry x="66" y="819" width="10" height="76" as="geometry" />
        </mxCell>
        <mxCell id="nmwjDRBDZmFMRTuQTV6h-62" value="Vehicle" style="shape=umlLifeline;perimeter=lifelinePerimeter;whiteSpace=wrap;html=1;container=0;dropTarget=0;collapsible=0;recursiveResize=0;outlineConnect=0;portConstraint=eastwest;newEdgeStyle={&quot;edgeStyle&quot;:&quot;elbowEdgeStyle&quot;,&quot;elbow&quot;:&quot;vertical&quot;,&quot;curved&quot;:0,&quot;rounded&quot;:0};" parent="1" vertex="1">
          <mxGeometry x="407" y="40" width="140" height="950" as="geometry" />
        </mxCell>
        <mxCell id="nmwjDRBDZmFMRTuQTV6h-63" value="" style="html=1;points=[];perimeter=orthogonalPerimeter;outlineConnect=0;targetShapes=umlLifeline;portConstraint=eastwest;newEdgeStyle={&quot;edgeStyle&quot;:&quot;elbowEdgeStyle&quot;,&quot;elbow&quot;:&quot;vertical&quot;,&quot;curved&quot;:0,&quot;rounded&quot;:0};" parent="nmwjDRBDZmFMRTuQTV6h-62" vertex="1">
          <mxGeometry x="65" y="300" width="10" height="185" as="geometry" />
        </mxCell>
        <mxCell id="nmwjDRBDZmFMRTuQTV6h-64" value="收到命令" style="html=1;align=left;spacingLeft=2;endArrow=block;rounded=0;edgeStyle=orthogonalEdgeStyle;curved=0;rounded=0;fontFamily=Helvetica;fontSize=12;fontColor=default;" parent="nmwjDRBDZmFMRTuQTV6h-62" edge="1">
          <mxGeometry relative="1" as="geometry">
            <mxPoint x="75" y="327" as="sourcePoint" />
            <Array as="points">
              <mxPoint x="110" y="327" />
              <mxPoint x="110" y="357" />
            </Array>
            <mxPoint x="75" y="357" as="targetPoint" />
          </mxGeometry>
        </mxCell>
        <mxCell id="nmwjDRBDZmFMRTuQTV6h-115" value="" style="html=1;points=[];perimeter=orthogonalPerimeter;outlineConnect=0;targetShapes=umlLifeline;portConstraint=eastwest;newEdgeStyle={&quot;edgeStyle&quot;:&quot;elbowEdgeStyle&quot;,&quot;elbow&quot;:&quot;vertical&quot;,&quot;curved&quot;:0,&quot;rounded&quot;:0};" parent="nmwjDRBDZmFMRTuQTV6h-62" vertex="1">
          <mxGeometry x="65" y="524" width="10" height="91" as="geometry" />
        </mxCell>
        <mxCell id="UPgxkfS9yM4EmyFrJnMO-21" value="" style="html=1;points=[];perimeter=orthogonalPerimeter;outlineConnect=0;targetShapes=umlLifeline;portConstraint=eastwest;newEdgeStyle={&quot;edgeStyle&quot;:&quot;elbowEdgeStyle&quot;,&quot;elbow&quot;:&quot;vertical&quot;,&quot;curved&quot;:0,&quot;rounded&quot;:0};" vertex="1" parent="nmwjDRBDZmFMRTuQTV6h-62">
          <mxGeometry x="65" y="825" width="10" height="60" as="geometry" />
        </mxCell>
        <mxCell id="nmwjDRBDZmFMRTuQTV6h-67" value="&lt;font style=&quot;font-size: 11px;&quot;&gt;5、钥匙合法性&lt;/font&gt;&lt;span style=&quot;font-size: 11px;&quot;&gt;验证&lt;/span&gt;" style="html=1;align=left;spacingLeft=2;endArrow=block;rounded=0;edgeStyle=orthogonalEdgeStyle;curved=0;rounded=0;fontFamily=Helvetica;fontSize=12;fontColor=default;" parent="1" edge="1">
          <mxGeometry relative="1" as="geometry">
            <mxPoint x="12" y="293" as="sourcePoint" />
            <Array as="points">
              <mxPoint x="42" y="293" />
              <mxPoint x="42" y="323" />
            </Array>
            <mxPoint x="12" y="323" as="targetPoint" />
          </mxGeometry>
        </mxCell>
        <mxCell id="nmwjDRBDZmFMRTuQTV6h-69" value="3.1、数据签名" style="html=1;align=left;spacingLeft=2;endArrow=block;rounded=0;edgeStyle=orthogonalEdgeStyle;curved=0;rounded=0;fontFamily=Helvetica;fontSize=12;fontColor=default;" parent="1" edge="1">
          <mxGeometry relative="1" as="geometry">
            <mxPoint x="-601" y="231" as="sourcePoint" />
            <Array as="points">
              <mxPoint x="-571" y="231" />
              <mxPoint x="-571" y="261" />
            </Array>
            <mxPoint x="-601" y="261" as="targetPoint" />
            <mxPoint as="offset" />
          </mxGeometry>
        </mxCell>
        <mxCell id="nmwjDRBDZmFMRTuQTV6h-70" value="" style="endArrow=classic;html=1;rounded=0;" parent="1" edge="1">
          <mxGeometry width="50" height="50" relative="1" as="geometry">
            <mxPoint x="17" y="342" as="sourcePoint" />
            <mxPoint x="232" y="342" as="targetPoint" />
          </mxGeometry>
        </mxCell>
        <mxCell id="nmwjDRBDZmFMRTuQTV6h-71" value="6、车控命令" style="edgeLabel;html=1;align=center;verticalAlign=middle;resizable=0;points=[];" parent="nmwjDRBDZmFMRTuQTV6h-70" vertex="1" connectable="0">
          <mxGeometry x="-0.1703" y="2" relative="1" as="geometry">
            <mxPoint as="offset" />
          </mxGeometry>
        </mxCell>
        <mxCell id="nmwjDRBDZmFMRTuQTV6h-72" value="9、返回" style="html=1;verticalAlign=bottom;endArrow=open;dashed=1;endSize=8;edgeStyle=elbowEdgeStyle;elbow=vertical;curved=0;rounded=0;" parent="1" edge="1">
          <mxGeometry relative="1" as="geometry">
            <mxPoint x="12" y="414" as="targetPoint" />
            <Array as="points" />
            <mxPoint x="227" y="414" as="sourcePoint" />
          </mxGeometry>
        </mxCell>
        <mxCell id="nmwjDRBDZmFMRTuQTV6h-73" value="10、返回（最长10秒后回复）" style="html=1;verticalAlign=bottom;endArrow=open;dashed=1;endSize=8;edgeStyle=elbowEdgeStyle;elbow=vertical;curved=0;rounded=0;" parent="1" edge="1">
          <mxGeometry relative="1" as="geometry">
            <mxPoint x="-217" y="425" as="targetPoint" />
            <Array as="points" />
            <mxPoint x="3" y="425" as="sourcePoint" />
            <mxPoint as="offset" />
          </mxGeometry>
        </mxCell>
        <mxCell id="nmwjDRBDZmFMRTuQTV6h-93" value="车控执行结果" style="html=1;align=left;spacingLeft=2;endArrow=block;rounded=0;edgeStyle=orthogonalEdgeStyle;curved=0;rounded=0;fontFamily=Helvetica;fontSize=12;fontColor=default;" parent="1" edge="1">
          <mxGeometry relative="1" as="geometry">
            <mxPoint x="482" y="435" as="sourcePoint" />
            <Array as="points">
              <mxPoint x="517" y="435" />
              <mxPoint x="517" y="465" />
            </Array>
            <mxPoint x="482" y="465" as="targetPoint" />
          </mxGeometry>
        </mxCell>
        <mxCell id="nmwjDRBDZmFMRTuQTV6h-96" value="" style="endArrow=classic;html=1;rounded=0;" parent="1" edge="1">
          <mxGeometry width="50" height="50" relative="1" as="geometry">
            <mxPoint x="242" y="355" as="sourcePoint" />
            <mxPoint x="472" y="355" as="targetPoint" />
          </mxGeometry>
        </mxCell>
        <mxCell id="nmwjDRBDZmFMRTuQTV6h-97" value="7、MQTT：车控命令（10秒超时）" style="edgeLabel;html=1;align=center;verticalAlign=middle;resizable=0;points=[];" parent="nmwjDRBDZmFMRTuQTV6h-96" vertex="1" connectable="0">
          <mxGeometry x="-0.1703" y="2" relative="1" as="geometry">
            <mxPoint x="10" as="offset" />
          </mxGeometry>
        </mxCell>
        <mxCell id="nmwjDRBDZmFMRTuQTV6h-98" value="8、MQTT：命令已经收到" style="html=1;verticalAlign=bottom;endArrow=open;dashed=1;endSize=8;edgeStyle=elbowEdgeStyle;elbow=vertical;curved=0;rounded=0;" parent="1" edge="1">
          <mxGeometry relative="1" as="geometry">
            <mxPoint x="242" y="405" as="targetPoint" />
            <Array as="points" />
            <mxPoint x="472" y="405" as="sourcePoint" />
          </mxGeometry>
        </mxCell>
        <mxCell id="nmwjDRBDZmFMRTuQTV6h-99" value="1、准备车控指令" style="html=1;align=left;spacingLeft=2;endArrow=block;rounded=0;edgeStyle=orthogonalEdgeStyle;curved=0;rounded=0;fontFamily=Helvetica;fontSize=12;fontColor=default;" parent="1" edge="1">
          <mxGeometry relative="1" as="geometry">
            <mxPoint x="-410" y="123" as="sourcePoint" />
            <Array as="points">
              <mxPoint x="-380" y="123" />
              <mxPoint x="-380" y="153" />
            </Array>
            <mxPoint x="-410" y="153" as="targetPoint" />
          </mxGeometry>
        </mxCell>
        <mxCell id="nmwjDRBDZmFMRTuQTV6h-65" value="" style="endArrow=classic;html=1;rounded=0;" parent="1" edge="1">
          <mxGeometry width="50" height="50" relative="1" as="geometry">
            <mxPoint x="-210" y="287" as="sourcePoint" />
            <mxPoint y="287" as="targetPoint" />
          </mxGeometry>
        </mxCell>
        <mxCell id="nmwjDRBDZmFMRTuQTV6h-66" value="4、HTTPS：车控命令请求" style="edgeLabel;html=1;align=center;verticalAlign=middle;resizable=0;points=[];" parent="nmwjDRBDZmFMRTuQTV6h-65" vertex="1" connectable="0">
          <mxGeometry x="-0.1703" y="2" relative="1" as="geometry">
            <mxPoint x="10" y="1" as="offset" />
          </mxGeometry>
        </mxCell>
        <mxCell id="nmwjDRBDZmFMRTuQTV6h-105" value="11、MQTT：车控执行结果" style="html=1;verticalAlign=bottom;endArrow=block;edgeStyle=elbowEdgeStyle;elbow=vertical;curved=0;rounded=0;" parent="1" edge="1">
          <mxGeometry x="0.0044" relative="1" as="geometry">
            <mxPoint x="469" y="480" as="sourcePoint" />
            <Array as="points" />
            <mxPoint x="244" y="480" as="targetPoint" />
            <mxPoint as="offset" />
          </mxGeometry>
        </mxCell>
        <mxCell id="nmwjDRBDZmFMRTuQTV6h-106" value="MQTT：返回" style="html=1;verticalAlign=bottom;endArrow=open;dashed=1;endSize=8;edgeStyle=elbowEdgeStyle;elbow=vertical;curved=0;rounded=0;" parent="1" edge="1">
          <mxGeometry x="0.0057" relative="1" as="geometry">
            <mxPoint x="470.5" y="502" as="targetPoint" />
            <Array as="points">
              <mxPoint x="331" y="502" />
            </Array>
            <mxPoint x="241" y="502" as="sourcePoint" />
            <mxPoint as="offset" />
          </mxGeometry>
        </mxCell>
        <mxCell id="nmwjDRBDZmFMRTuQTV6h-107" value="12、车控执行结果" style="html=1;verticalAlign=bottom;endArrow=block;edgeStyle=elbowEdgeStyle;elbow=vertical;curved=0;rounded=0;" parent="1" edge="1">
          <mxGeometry relative="1" as="geometry">
            <mxPoint x="227" y="513" as="sourcePoint" />
            <Array as="points" />
            <mxPoint x="10" y="513" as="targetPoint" />
          </mxGeometry>
        </mxCell>
        <mxCell id="nmwjDRBDZmFMRTuQTV6h-109" value="13、MQTT：车控执行结果" style="html=1;verticalAlign=bottom;endArrow=block;edgeStyle=elbowEdgeStyle;elbow=vertical;curved=0;rounded=0;" parent="1" edge="1">
          <mxGeometry relative="1" as="geometry">
            <mxPoint x="2" y="524" as="sourcePoint" />
            <Array as="points" />
            <mxPoint x="-217" y="524" as="targetPoint" />
          </mxGeometry>
        </mxCell>
        <mxCell id="nmwjDRBDZmFMRTuQTV6h-112" value="返回" style="html=1;verticalAlign=bottom;endArrow=open;dashed=1;endSize=8;edgeStyle=elbowEdgeStyle;elbow=vertical;curved=0;rounded=0;" parent="1" edge="1">
          <mxGeometry x="0.0057" relative="1" as="geometry">
            <mxPoint x="232" y="538" as="targetPoint" />
            <Array as="points">
              <mxPoint x="107" y="538" />
            </Array>
            <mxPoint x="17" y="538" as="sourcePoint" />
            <mxPoint as="offset" />
          </mxGeometry>
        </mxCell>
        <mxCell id="nmwjDRBDZmFMRTuQTV6h-116" value="产生车况数据" style="html=1;align=left;spacingLeft=2;endArrow=block;rounded=0;edgeStyle=orthogonalEdgeStyle;curved=0;rounded=0;fontFamily=Helvetica;fontSize=12;fontColor=default;" parent="1" edge="1">
          <mxGeometry relative="1" as="geometry">
            <mxPoint x="484" y="575" as="sourcePoint" />
            <Array as="points">
              <mxPoint x="519" y="575" />
              <mxPoint x="519" y="605" />
            </Array>
            <mxPoint x="484" y="605" as="targetPoint" />
          </mxGeometry>
        </mxCell>
        <mxCell id="nmwjDRBDZmFMRTuQTV6h-132" value="车控过程V2.0" style="shape=umlFrame;whiteSpace=wrap;html=1;pointerEvents=0;sketch=0;strokeColor=default;align=center;verticalAlign=middle;fontFamily=Helvetica;fontSize=12;fontColor=default;fillColor=default;" parent="1" vertex="1">
          <mxGeometry x="-793" y="98" width="1503" height="632" as="geometry" />
        </mxCell>
        <mxCell id="UPgxkfS9yM4EmyFrJnMO-1" value="SESDK" style="shape=umlLifeline;perimeter=lifelinePerimeter;whiteSpace=wrap;html=1;container=0;dropTarget=0;collapsible=0;recursiveResize=0;outlineConnect=0;portConstraint=eastwest;newEdgeStyle={&quot;edgeStyle&quot;:&quot;elbowEdgeStyle&quot;,&quot;elbow&quot;:&quot;vertical&quot;,&quot;curved&quot;:0,&quot;rounded&quot;:0};" vertex="1" parent="1">
          <mxGeometry x="-659" y="41" width="100" height="949" as="geometry" />
        </mxCell>
        <mxCell id="UPgxkfS9yM4EmyFrJnMO-2" value="" style="html=1;points=[];perimeter=orthogonalPerimeter;outlineConnect=0;targetShapes=umlLifeline;portConstraint=eastwest;newEdgeStyle={&quot;edgeStyle&quot;:&quot;elbowEdgeStyle&quot;,&quot;elbow&quot;:&quot;vertical&quot;,&quot;curved&quot;:0,&quot;rounded&quot;:0};" vertex="1" parent="UPgxkfS9yM4EmyFrJnMO-1">
          <mxGeometry x="46" y="158" width="10" height="90" as="geometry" />
        </mxCell>
        <mxCell id="UPgxkfS9yM4EmyFrJnMO-5" value="3.2、返回签名数据" style="html=1;verticalAlign=bottom;endArrow=open;dashed=1;endSize=8;edgeStyle=elbowEdgeStyle;elbow=vertical;curved=0;rounded=0;" edge="1" parent="1">
          <mxGeometry x="0.0057" relative="1" as="geometry">
            <mxPoint x="-425" y="276" as="targetPoint" />
            <Array as="points">
              <mxPoint x="-510" y="276" />
            </Array>
            <mxPoint x="-600" y="276" as="sourcePoint" />
            <mxPoint as="offset" />
          </mxGeometry>
        </mxCell>
        <mxCell id="UPgxkfS9yM4EmyFrJnMO-8" value="3、车控指令签名请求" style="html=1;verticalAlign=bottom;endArrow=block;edgeStyle=elbowEdgeStyle;elbow=vertical;curved=0;rounded=0;" edge="1" parent="1">
          <mxGeometry relative="1" as="geometry">
            <mxPoint x="-230" y="217" as="sourcePoint" />
            <Array as="points" />
            <mxPoint x="-600" y="217" as="targetPoint" />
          </mxGeometry>
        </mxCell>
        <mxCell id="UPgxkfS9yM4EmyFrJnMO-9" value="14、车控指令应答" style="html=1;verticalAlign=bottom;endArrow=open;dashed=1;endSize=8;edgeStyle=elbowEdgeStyle;elbow=horizontal;curved=0;rounded=0;" edge="1" parent="1">
          <mxGeometry relative="1" as="geometry">
            <mxPoint x="-410" y="574" as="targetPoint" />
            <Array as="points" />
            <mxPoint x="-230" y="574" as="sourcePoint" />
            <mxPoint as="offset" />
          </mxGeometry>
        </mxCell>
        <mxCell id="UPgxkfS9yM4EmyFrJnMO-10" value="" style="html=1;points=[];perimeter=orthogonalPerimeter;outlineConnect=0;targetShapes=umlLifeline;portConstraint=eastwest;newEdgeStyle={&quot;edgeStyle&quot;:&quot;elbowEdgeStyle&quot;,&quot;elbow&quot;:&quot;vertical&quot;,&quot;curved&quot;:0,&quot;rounded&quot;:0};" vertex="1" parent="1">
          <mxGeometry x="-227" y="651" width="10" height="40" as="geometry" />
        </mxCell>
        <mxCell id="UPgxkfS9yM4EmyFrJnMO-12" value="18、车况上报" style="html=1;verticalAlign=bottom;endArrow=block;edgeStyle=elbowEdgeStyle;elbow=vertical;curved=0;rounded=0;" edge="1" parent="1">
          <mxGeometry x="-0.0028" relative="1" as="geometry">
            <mxPoint x="-229" y="671" as="sourcePoint" />
            <Array as="points" />
            <mxPoint x="-409" y="670.5" as="targetPoint" />
            <mxPoint as="offset" />
          </mxGeometry>
        </mxCell>
        <mxCell id="UPgxkfS9yM4EmyFrJnMO-13" value="" style="html=1;points=[];perimeter=orthogonalPerimeter;outlineConnect=0;targetShapes=umlLifeline;portConstraint=eastwest;newEdgeStyle={&quot;edgeStyle&quot;:&quot;elbowEdgeStyle&quot;,&quot;elbow&quot;:&quot;vertical&quot;,&quot;curved&quot;:0,&quot;rounded&quot;:0};" vertex="1" parent="1">
          <mxGeometry x="-227" y="846" width="10" height="98" as="geometry" />
        </mxCell>
        <mxCell id="UPgxkfS9yM4EmyFrJnMO-14" value="" style="endArrow=classic;html=1;rounded=0;" edge="1" parent="1">
          <mxGeometry width="50" height="50" relative="1" as="geometry">
            <mxPoint x="-408" y="858" as="sourcePoint" />
            <mxPoint x="-227" y="858" as="targetPoint" />
          </mxGeometry>
        </mxCell>
        <mxCell id="UPgxkfS9yM4EmyFrJnMO-15" value="&lt;div style=&quot;text-align: left;&quot;&gt;21、后台线程请求最新车况&lt;/div&gt;" style="edgeLabel;html=1;align=center;verticalAlign=middle;resizable=0;points=[];" vertex="1" connectable="0" parent="UPgxkfS9yM4EmyFrJnMO-14">
          <mxGeometry x="-0.1703" y="2" relative="1" as="geometry">
            <mxPoint x="10" y="1" as="offset" />
          </mxGeometry>
        </mxCell>
        <mxCell id="UPgxkfS9yM4EmyFrJnMO-16" value="" style="html=1;points=[];perimeter=orthogonalPerimeter;outlineConnect=0;targetShapes=umlLifeline;portConstraint=eastwest;newEdgeStyle={&quot;edgeStyle&quot;:&quot;elbowEdgeStyle&quot;,&quot;elbow&quot;:&quot;vertical&quot;,&quot;curved&quot;:0,&quot;rounded&quot;:0};" vertex="1" parent="1">
          <mxGeometry x="2" y="856" width="10" height="88" as="geometry" />
        </mxCell>
        <mxCell id="UPgxkfS9yM4EmyFrJnMO-17" value="返回车况" style="html=1;verticalAlign=bottom;endArrow=open;dashed=1;endSize=8;edgeStyle=elbowEdgeStyle;elbow=horizontal;curved=0;rounded=0;" edge="1" parent="1">
          <mxGeometry relative="1" as="geometry">
            <mxPoint x="-214" y="932" as="targetPoint" />
            <Array as="points" />
            <mxPoint x="-9" y="932" as="sourcePoint" />
          </mxGeometry>
        </mxCell>
        <mxCell id="UPgxkfS9yM4EmyFrJnMO-18" value="" style="endArrow=classic;html=1;rounded=0;" edge="1" parent="1">
          <mxGeometry width="50" height="50" relative="1" as="geometry">
            <mxPoint x="-217" y="868" as="sourcePoint" />
            <mxPoint x="-2" y="868" as="targetPoint" />
          </mxGeometry>
        </mxCell>
        <mxCell id="UPgxkfS9yM4EmyFrJnMO-19" value="22、同步请求车况" style="edgeLabel;html=1;align=center;verticalAlign=middle;resizable=0;points=[];" vertex="1" connectable="0" parent="UPgxkfS9yM4EmyFrJnMO-18">
          <mxGeometry x="-0.1703" y="2" relative="1" as="geometry">
            <mxPoint as="offset" />
          </mxGeometry>
        </mxCell>
        <mxCell id="UPgxkfS9yM4EmyFrJnMO-22" value="" style="endArrow=classic;html=1;rounded=0;" edge="1" parent="1">
          <mxGeometry width="50" height="50" relative="1" as="geometry">
            <mxPoint x="252" y="872" as="sourcePoint" />
            <mxPoint x="470" y="875" as="targetPoint" />
          </mxGeometry>
        </mxCell>
        <mxCell id="UPgxkfS9yM4EmyFrJnMO-23" value="23、MQTT：请求车况（10秒超时）" style="edgeLabel;html=1;align=center;verticalAlign=middle;resizable=0;points=[];" vertex="1" connectable="0" parent="UPgxkfS9yM4EmyFrJnMO-22">
          <mxGeometry x="-0.1703" y="2" relative="1" as="geometry">
            <mxPoint x="10" as="offset" />
          </mxGeometry>
        </mxCell>
        <mxCell id="UPgxkfS9yM4EmyFrJnMO-24" value="MQTT：车况数据" style="html=1;verticalAlign=bottom;endArrow=open;dashed=1;endSize=8;edgeStyle=elbowEdgeStyle;elbow=vertical;curved=0;rounded=0;" edge="1" parent="1">
          <mxGeometry relative="1" as="geometry">
            <mxPoint x="252" y="918" as="targetPoint" />
            <Array as="points" />
            <mxPoint x="460" y="918" as="sourcePoint" />
          </mxGeometry>
        </mxCell>
        <mxCell id="UPgxkfS9yM4EmyFrJnMO-25" value="返回车况" style="html=1;verticalAlign=bottom;endArrow=open;dashed=1;endSize=8;edgeStyle=elbowEdgeStyle;elbow=vertical;curved=0;rounded=0;" edge="1" parent="1">
          <mxGeometry relative="1" as="geometry">
            <mxPoint x="17" y="924" as="targetPoint" />
            <Array as="points" />
            <mxPoint x="222" y="924" as="sourcePoint" />
          </mxGeometry>
        </mxCell>
        <mxCell id="UPgxkfS9yM4EmyFrJnMO-26" value="" style="endArrow=classic;html=1;rounded=0;" edge="1" parent="1">
          <mxGeometry width="50" height="50" relative="1" as="geometry">
            <mxPoint x="14" y="875" as="sourcePoint" />
            <mxPoint x="229" y="875" as="targetPoint" />
          </mxGeometry>
        </mxCell>
        <mxCell id="UPgxkfS9yM4EmyFrJnMO-27" value="22、请求车况" style="edgeLabel;html=1;align=center;verticalAlign=middle;resizable=0;points=[];" vertex="1" connectable="0" parent="UPgxkfS9yM4EmyFrJnMO-26">
          <mxGeometry x="-0.1703" y="2" relative="1" as="geometry">
            <mxPoint as="offset" />
          </mxGeometry>
        </mxCell>
        <mxCell id="UPgxkfS9yM4EmyFrJnMO-28" value="24、车况数据返回" style="html=1;align=left;spacingLeft=2;endArrow=block;rounded=0;edgeStyle=orthogonalEdgeStyle;curved=0;rounded=0;fontFamily=Helvetica;fontSize=12;fontColor=default;" edge="1" parent="1">
          <mxGeometry relative="1" as="geometry">
            <mxPoint x="485" y="878" as="sourcePoint" />
            <Array as="points">
              <mxPoint x="520" y="878" />
              <mxPoint x="520" y="908" />
            </Array>
            <mxPoint x="485" y="908" as="targetPoint" />
          </mxGeometry>
        </mxCell>
        <mxCell id="UPgxkfS9yM4EmyFrJnMO-30" value="20、使用手机端本地车况渲染UI" style="html=1;align=left;spacingLeft=2;endArrow=block;rounded=0;edgeStyle=orthogonalEdgeStyle;curved=0;rounded=0;fontFamily=Helvetica;fontSize=12;fontColor=default;" edge="1" parent="1">
          <mxGeometry relative="1" as="geometry">
            <mxPoint x="-408" y="774" as="sourcePoint" />
            <Array as="points">
              <mxPoint x="-373" y="774" />
              <mxPoint x="-373" y="804" />
            </Array>
            <mxPoint x="-408" y="804" as="targetPoint" />
          </mxGeometry>
        </mxCell>
        <mxCell id="UPgxkfS9yM4EmyFrJnMO-31" value="25、返回车况" style="html=1;verticalAlign=bottom;endArrow=open;dashed=1;endSize=8;edgeStyle=elbowEdgeStyle;elbow=horizontal;curved=0;rounded=0;" edge="1" parent="1">
          <mxGeometry relative="1" as="geometry">
            <mxPoint x="-406" y="942" as="targetPoint" />
            <Array as="points" />
            <mxPoint x="-233" y="942" as="sourcePoint" />
          </mxGeometry>
        </mxCell>
        <mxCell id="UPgxkfS9yM4EmyFrJnMO-32" value="主动请求车况" style="shape=umlFrame;whiteSpace=wrap;html=1;pointerEvents=0;sketch=0;strokeColor=default;align=center;verticalAlign=middle;fontFamily=Helvetica;fontSize=12;fontColor=default;fillColor=default;" vertex="1" parent="1">
          <mxGeometry x="-793" y="747" width="1503" height="250" as="geometry" />
        </mxCell>
      </root>
    </mxGraphModel>
  </diagram>
</mxfile>
